<svg style="display: none;" xmlns="http://www.w3.org/2000/svg" xmlns:xlink="http://www.w3.org/1999/xlink"><symbol viewBox="0 0 61.59 50.36" id="icon--business"><title>business</title><path class="acls-1" d="M58.12 8.18H45.31V5.3A5.31 5.31 0 0 0 40 0H21.58a5.31 5.31 0 0 0-5.3 5.3v2.88H3.47A3.59 3.59 0 0 0 0 11.87v34.8a3.59 3.59 0 0 0 3.47 3.69h54.65a3.59 3.59 0 0 0 3.47-3.69v-34.8a3.59 3.59 0 0 0-3.47-3.69zM21.58 4H40a1.32 1.32 0 0 1 1.33 1.3v2.88H20.27V5.3A1.32 1.32 0 0 1 21.58 4zm13 21.18v3.09a.15.15 0 0 1-.15.15h-7a.15.15 0 0 1-.15-.15v-3.1a.15.15 0 0 1 .11-.17h7a.15.15 0 0 1 .18.17zm19.8-1.32h-16A4.16 4.16 0 0 0 34.42 21h-7a4.16 4.16 0 0 0-3.92 2.81H7.22A3.49 3.49 0 0 1 4 21.52v-9.35h53.61v8.89a3.15 3.15 0 0 1-3.24 2.79zM6.46 27.79a7.54 7.54 0 0 0 .76 0h16v.42a4.14 4.14 0 0 0 4.14 4.14h7a4.14 4.14 0 0 0 4.13-4.14v-.38h15.88a7.27 7.27 0 0 0 .8 0l.43-.06h.23a8.38 8.38 0 0 0 1.78-.53v19.14H4V27.17a8.41 8.41 0 0 0 2 .55zm49.32-.35z"/></symbol><symbol viewBox="0 0 18 18" id="icon--captions-off"><path d="M1 1c-.6 0-1 .4-1 1v11c0 .6.4 1 1 1h4.6l2.7 2.7c.2.2.4.3.7.3.3 0 .5-.1.7-.3l2.7-2.7H17c.6 0 1-.4 1-1V2c0-.6-.4-1-1-1H1zm4.52 10.15c1.99 0 3.01-1.32 3.28-2.41l-1.29-.39c-.19.66-.78 1.45-1.99 1.45-1.14 0-2.2-.83-2.2-2.34 0-1.61 1.12-2.37 2.18-2.37 1.23 0 1.78.75 1.95 1.43l1.3-.41C8.47 4.96 7.46 3.76 5.5 3.76c-1.9 0-3.61 1.44-3.61 3.7 0 2.26 1.65 3.69 3.63 3.69zm7.57 0c1.99 0 3.01-1.32 3.28-2.41l-1.29-.39c-.19.66-.78 1.45-1.99 1.45-1.14 0-2.2-.83-2.2-2.34 0-1.61 1.12-2.37 2.18-2.37 1.23 0 1.78.75 1.95 1.43l1.3-.41c-.28-1.15-1.29-2.35-3.25-2.35-1.9 0-3.61 1.44-3.61 3.7 0 2.26 1.65 3.69 3.63 3.69z" fill-rule="evenodd" fill-opacity=".5"/></symbol><symbol viewBox="0 0 18 18" id="icon--captions-on"><path d="M1 1c-.6 0-1 .4-1 1v11c0 .6.4 1 1 1h4.6l2.7 2.7c.2.2.4.3.7.3.3 0 .5-.1.7-.3l2.7-2.7H17c.6 0 1-.4 1-1V2c0-.6-.4-1-1-1H1zm4.52 10.15c1.99 0 3.01-1.32 3.28-2.41l-1.29-.39c-.19.66-.78 1.45-1.99 1.45-1.14 0-2.2-.83-2.2-2.34 0-1.61 1.12-2.37 2.18-2.37 1.23 0 1.78.75 1.95 1.43l1.3-.41C8.47 4.96 7.46 3.76 5.5 3.76c-1.9 0-3.61 1.44-3.61 3.7 0 2.26 1.65 3.69 3.63 3.69zm7.57 0c1.99 0 3.01-1.32 3.28-2.41l-1.29-.39c-.19.66-.78 1.45-1.99 1.45-1.14 0-2.2-.83-2.2-2.34 0-1.61 1.12-2.37 2.18-2.37 1.23 0 1.78.75 1.95 1.43l1.3-.41c-.28-1.15-1.29-2.35-3.25-2.35-1.9 0-3.61 1.44-3.61 3.7 0 2.26 1.65 3.69 3.63 3.69z" fill-rule="evenodd"/></symbol><symbol viewBox="0 0 96 96" id="icon--cross"><path d="M65.026 47.998l29.799-29.8a4.013 4.013 0 0 0 0-5.675l-11.35-11.35a4.014 4.014 0 0 0-5.676 0L48 30.972 18.201 1.173a4.018 4.018 0 0 0-5.676 0L1.175 12.527a4.013 4.013 0 0 0 0 5.675l29.8 29.8-29.8 29.795a4.02 4.02 0 0 0 0 5.68l11.351 11.351a4.018 4.018 0 0 0 5.676 0L48 65.027l29.799 29.8a4.014 4.014 0 0 0 5.676 0l11.351-11.354a4.014 4.014 0 0 0 0-5.676l-29.8-29.799z" fill-rule="evenodd"/></symbol><symbol viewBox="0 0 45.94 45.94" id="icon--date"><title>date</title><path class="ecls-1" d="M41.34 41.34H4.59V9.19h4.6v4.59h4.59V9.19h18.38v4.59h4.59V9.19h4.59v32.15zm4.6-36.75h-9.19V0h-4.59v4.59H13.78V0H9.19v4.59H0v41.35h45.94V4.59z"/></symbol><symbol viewBox="0 0 18 18" id="icon--enter-fullscreen"><path d="M10 3h3.6l-4 4L11 8.4l4-4V8h2V1h-7zM7 9.6l-4 4V10H1v7h7v-2H4.4l4-4z"/></symbol><symbol viewBox="0 0 18 18" id="icon--exit-fullscreen"><path d="M1 12h3.6l-4 4L2 17.4l4-4V17h2v-7H1zM16 .6l-4 4V1h-2v7h7V6h-3.6l4-4z"/></symbol><symbol viewBox="0 0 9.22 19.85" id="icon--facebook"><title>s_facebook</title><path class="hcls-1" d="M9.22 6.43H6.08V4.37a.84.84 0 0 1 .87-1h2.22V0H6.12A3.87 3.87 0 0 0 2 4.16v2.27H0v3.5h2v9.92h4.08V9.93h2.78z"/></symbol><symbol viewBox="0 0 18 18" id="icon--fast-forward"><path d="M7.875 7.171L0 1v16l7.875-6.171V17L18 9 7.875 1z"/></symbol><symbol viewBox="0 0 54.85 31.09" id="icon--group"><title>group</title><path class="jcls-1" d="M27.39 15h.08a7.5 7.5 0 1 0 0-15h-.08a7.5 7.5 0 1 0 0 15zm4-7.49a4 4 0 1 1-4-4 4 4 0 0 1 4.03 3.98zm13.14 5.69A6.59 6.59 0 1 0 38 6.59a6.6 6.6 0 0 0 6.56 6.59zm-3.11-6.61a3.14 3.14 0 1 1 3.14 3.13 3.14 3.14 0 0 1-3.14-3.13zM54.7 25.51a1.73 1.73 0 0 1-3.19-.1C49.76 20.78 47.17 18 44.6 18s-5 2.56-6.69 6.85c.14.27.28.57.41.85l.07.15c.35.74.68 1.5 1 2.3v.27A2 2 0 0 1 38.3 31a2 2 0 0 1-2.54-1.17c-2.09-5.66-5.2-9-8.34-9s-6.25 3.38-8.33 9a2 2 0 0 1-3.7-1.37v-.27c.3-.8.64-1.55 1-2.29l.1-.2c.13-.27.26-.56.4-.82-1.68-4.31-4.18-6.88-6.63-6.88s-5.16 2.78-6.91 7.41a1.733 1.733 0 1 1-3.24-1.23c2.31-6.12 6-9.62 10.14-9.62 3.45 0 6.6 2.43 8.91 6.85.18-.23.37-.43.55-.64l.15-.17c.19-.21.38-.41.58-.6l.28-.27c.18-.17.37-.34.55-.5l.34-.23c.18-.14.36-.29.55-.42l.36-.23a10.41 10.41 0 0 1 .94-.54l.54-.26.47-.18.53-.18.45-.12.55-.12.39-.06a8.52 8.52 0 0 1 1-.06h.12a8.52 8.52 0 0 1 1 .06l.39.06.61.12.45.12.53.18.47.18.49.24a10.41 10.41 0 0 1 .94.54l.36.23c.19.13.37.27.55.42l.33.26c.19.16.37.32.55.5l.23.26c.19.19.39.39.58.6l.15.17c.19.21.37.41.55.64C38 17 41.15 14.56 44.6 14.56c4.13 0 7.83 3.51 10.14 9.62a1.71 1.71 0 0 1-.04 1.33zM10.3 13.18a6.59 6.59 0 1 0-6.6-6.59 6.6 6.6 0 0 0 6.6 6.59zm0-9.72a3.13 3.13 0 1 1-3.14 3.13 3.14 3.14 0 0 1 3.14-3.13z"/></symbol><symbol id="icon--logo" viewBox="0 0 77.41 15"><defs><style>.kcls-1{fill:#efc048}.kcls-2{fill:#fff}</style></defs><title>logo</title><path class="kcls-1" d="M0 .13h2.57A2.76 2.76 0 0 1 5.3 2.94a2.76 2.76 0 0 1-2.73 2.83H0V.13zm2.25 4.56A1.71 1.71 0 0 0 4 2.94a1.71 1.71 0 0 0-1.75-1.75h-1.1v3.5h1.1zM8.92.13h1.15v5.64H8.92V.13zm5.23 0h1L17.61 3V.13h1.08v5.78l-3.46-4.16v4h-1.08V.13zm8.45 0h1L26.06 3V.13h1.08v5.78l-3.47-4.16v4H22.6V.13zm8.62 0h3.33v1.08h-2.17v1.08h2.06v1.06h-2.06v1.34h2.23v1.08h-3.39V.13zm8.31 3.98v1.66h-1.15V.13h2.48A1.87 1.87 0 0 1 42.72 2a2.3 2.3 0 0 1-.89 1.77 1.81 1.81 0 0 1 .89 1.67v.33h-1.15V5.5a1.35 1.35 0 0 0-1.28-1.39h-.76zm1-2.93h-1v1.88h1a.94.94 0 1 0 .03-1.87zm7.86 1.16a1.7 1.7 0 0 1 1.71 1.71 1.79 1.79 0 0 1-1.71 1.71h-2.06v-1h2a.67.67 0 0 0 0-1.34h-.68a1.63 1.63 0 0 1 0-3.26h1.74v1h-1.67a.59.59 0 1 0 0 1.18h.67zM53.78.13h1.15v2.29h2.21V.13h1.15v5.64h-1.15V3.43h-2.21v2.34h-1.15V.13zM61.91 3a3 3 0 0 1 6 0 3 3 0 0 1-6 0zm4.77 0a1.78 1.78 0 1 0-3.56 0 1.78 1.78 0 1 0 3.56 0zM76.26.13h1.15L75 5.91l-1-2.16-.9 2.16L70.59.13h1.15L73.2 3.6l.38-1-1-2.49h1.14L75 3.6z"/><path class="kcls-2" d="M21.41 13.58h-1v1.3h-.78v-4h1.77a1.34 1.34 0 0 1 1.33 1.34 1.37 1.37 0 0 1-1.32 1.36zm-.15-2h-.8v1.22h.8a.61.61 0 1 0-.01-1.19zm4.33 2.59l-.3.71h-.87l1.83-4.13 1.83 4.13h-.87l-.29-.71h-1.33zm.66-1.7l-.41 1h.82zm4.29-1.62h.72L33 12.91v-2.06h.77V15l-2.48-3v2.87h-.75v-4zm6.16 0h1.83a2 2 0 0 1 0 4H36.7v-4zm1.61 3.26a1.25 1.25 0 1 0 0-2.5h-.78v2.5h.79zm4.43-1.23A2.14 2.14 0 1 1 44.88 15a2.13 2.13 0 0 1-2.14-2.12zm3.41 0a1.27 1.27 0 1 0-1.28 1.32 1.29 1.29 0 0 0 1.29-1.32zm4.15.82v1.18h-.82v-4h1.77a1.34 1.34 0 0 1 1.33 1.34 1.64 1.64 0 0 1-.63 1.27 1.29 1.29 0 0 1 .63 1.19v.23h-.82v-.22a1 1 0 0 0-.92-1h-.54zm.7-2.09h-.7v1.34h.7a.67.67 0 0 0 0-1.34zm4.94 2.56l-.3.71h-.86l1.83-4.13 1.83 4.13h-.87l-.29-.71h-1.34zm.66-1.7l-.41 1H57z"/></symbol><symbol viewBox="0 0 18 18" id="icon--muted"><path d="M12.4 12.5l2.1-2.1 2.1 2.1 1.4-1.4L15.9 9 18 6.9l-1.4-1.4-2.1 2.1-2.1-2.1L11 6.9 13.1 9 11 11.1zM3.786 6.008H.714C.286 6.008 0 6.31 0 6.76v4.512c0 .452.286.752.714.752h3.072l4.071 3.858c.5.3 1.143 0 1.143-.602V2.752c0-.601-.643-.977-1.143-.601L3.786 6.008z"/></symbol><symbol viewBox="0 0 26.11 43.75" id="icon--next"><title>arrow_big</title><path class="mcls-1" d="M26.09 21.88L4.24 43.75 0 39.51l17.64-17.63L0 4.24 4.24 0l21.87 21.86z"/></symbol><symbol viewBox="0 0 18 18" id="icon--pause"><path d="M6 1H3c-.6 0-1 .4-1 1v14c0 .6.4 1 1 1h3c.6 0 1-.4 1-1V2c0-.6-.4-1-1-1zM12 1c-.6 0-1 .4-1 1v14c0 .6.4 1 1 1h3c.6 0 1-.4 1-1V2c0-.6-.4-1-1-1h-3z"/></symbol><symbol viewBox="0 0 121 121" id="icon--play"><title>play</title><path class="ocls-1" d="M60.5 121A60.5 60.5 0 1 1 121 60.5 60.57 60.57 0 0 1 60.5 121zm0-114A53.5 53.5 0 1 0 114 60.5 53.56 53.56 0 0 0 60.5 7zM48.15 42v37l32-18.5z"/></symbol><symbol viewBox="0 0 26.11 43.75" id="icon--prev"><title>arrow_big_left</title><path class="pcls-1" d="M0 21.86L21.86 0l4.24 4.24L8.47 21.88l17.64 17.63-4.24 4.24L0 21.89z"/></symbol><symbol viewBox="0 0 115 96" id="icon--qikker"><title>logo</title><g fill-rule="evenodd"><path d="M49.2 56.8c-2.4 0-4.7-.1-7-.9-2.5-.8-5.2-1.5-7.6-2.6-3-1.3-5.6-3.1-8.1-5.2-4.6-3.9-9.4-7.5-14.3-11-2.5-1.8-5.4-3.3-8.7-3.4-1.7-.1-2.7.7-3 2.4-.3 1.4-.4 2.8-.2 4.3.4 2.4.5 5 1.1 7.4 1.4 5.6 3.2 11 6.2 15.9.7 1.1 1.5 2.2 2.3 3.2 1.4 1.6 2.7 3.2 4.2 4.7 3.3 3.3 6.7 6.5 10 9.7 1 1 1.9 2.1 2.3 3.5.7 2.5 2.1 3.5 4.7 3.4 1.3-.1 2.5-.9 2.9-2.1.6-1.8-.1-4-2.3-4.7-1.8-.5-3.4-1.4-4.8-2.6-1.5-1.2-2.9-2.4-4.4-3.6C8.2 61.6 4.6 47.4 4.6 47.4c-.9-2.8-1.6-5.8-1.3-8.8.1-1.8 1.5-2.5 3-1.5l.3.3c2.8 1.9 4.8 4.6 7.1 7 2 2.1 3.6 4.5 4.9 7.1.8 1.6 1.7 3.2 2.5 4.8-.3-3-1.2-5.9-2.1-8.9 1.2.9 2.2 1.6 3.2 2.5 3.4 2.9 6.8 5.7 10.7 7.8 1.8 1 3.7 2 5.7 2.8 1.4.6 3 .9 4.5 1.3 2.7.7 5.5.6 8.3.2 3.4-.5 6.1-2.3 8.6-4.4 2.9-2.4 5-5.4 5.8-9.2.8-3.7.8-7.3-.5-10.8-.5-1.3-1-2.7-2.3-3.6.1.2.1.4.2.6.8 1.3 1.3 2.7 1.4 4.2 0 .9.2 1.8 0 2.7-.2 1.3-.3 2.8-.8 4-.2-.3-3.1 11.1-14.6 11.3z"/><path d="M62.7 73.3c-2-4.8-1.5-9.6-.5-14.7-1.3 1.1-2.5 2.1-3.6 3-2.5 2.1-5.5 3.1-8.7 3.5-3.7.4-7.2-.5-10.6-1.8-2-.8-4-1.6-5.8-2.7-2.5-1.5-4.9-3.2-7.2-4.9-1.1-.8-2-1.7-3.1-2.6-.2-.2-.3-.4-.3-.4l.1.6c.2 1.4.4 2.9.6 4.3.4 2.5.8 5 1.1 7.5.2 1.4.2 2.9.2 4.4 0 2.8-1.4.7-1.4.7-.7-1.2-1.5-2.5-2.1-3.8-1.6-3.8-3-7.8-4.7-11.6-1.6-3.6-3.3-7.1-5.9-10.2-1.4-1.7-2.8-3.4-4.3-5.1-.3-.3-.8-.8-1.1-.8 0 0-.7-.1-.2 2.2.5 2.6 1.3 5 2.3 7.4 1.4 3.1 2.7 6.2 4.1 9.3 1.4 3 3.2 5.7 5.2 8.3 2.2 2.9 4.6 5.6 7.5 7.9 1.4 1.1 2.5.9 3.5-.5 1.6-2.2 1.2-4.7 1.2-7.1 0-1.6-.3-3.3-.5-4.9l-.1-.6.4.5c2.4 2.4 5.2 4.2 8.2 5.5 4.2 1.9 8.6 2.5 13.1 2 2.5-.3 4.8-1.2 6.6-3.2.7-.8 1.4-1.4 2.2-2.2-.7 4.8-.7 9.3 2.4 13.4 3 3.8 6.7 6.4 11.4 7.4-4.2-2.8-7.9-6-10-10.8zm43.6-24.8c-1.1.1-2.1.3-3 1.1-1.1 1.1-2.4 1.7-4 1.6-2-.1-4-.2-6-.4-1.2-.1-2.4-.5-3.6-.8.7-3.8.2-4.6-.7-6.4-.6-1.2-1.4-2.2-2.7-2.8-1.5-.7-3-1-4.7-.9-1.7.1-3.2 2.1-2.8 3.8.2-.2.3-.4.5-.5.8-.6 1.6-1.1 2.7-.7 2.8.9 3.6 3.7 2.2 5.8-1.6 2.4-4.2 3.5-7.1 3.2-1.3-.1-2.7-.5-4.1-.8.1 6.1-.8 9.6-.8 10l.2-.4c1.6-2.2 4.3-3.4 6.8-4.3 1.8-.7 3.5-.5 5.2-.1 2.1.5 3.9 1.6 5.5 3.1 2.1 2 3.7 4.3 4.4 7.2.4 1.6 1.2 3.1 2.9 3.8 1.3.6 2.8.4 4-.7.7-.7 1-2.2.6-3.4-.6-1.7-2.1-2.3-3.6-2.9-.4-.1-.9-.3-1.1-.6-2.4-2.9-5.3-5.2-8.4-7.3-.9-.6-1.7-1.3-2.6-1.9l-.5-.4s.4-.3 2-.4c2.4 0 4.9-.1 7.3 0 1.2 0 2.3.2 3.5.5 2.2.5 4.3 1.2 6.4 1.8 2.3.7 4.6-.5 5.1-2.8.1-.6 0-1.5-.4-2-.9-.9-1.9-1.6-3.2-1.4z"/><path d="M87.5 75.7c-1.4.2-2.6.8-3.7 1.8-.5.4-1.2.7-1.8.7-2.1 0-3.9-.7-5.6-1.9-2.3-1.8-4.3-3.9-5.4-6.8-1.2-3.1-1.6-6.2-1-9.4.4-2.3.7-4.6.7-6.9 0-7.8-2.6-13.4-2.6-13.4 2 9.6-1.3 15.1-1.6 15.7-.3.6-.5 1.4-.5 1.4-.5 2.3-1 6.7-.5 9 1 4.7 4 7.9 7.5 10.8 1.5 1.3 3.3 2.4 5.1 3.2 3.2 1.4 6.6 1.9 10.1 1.3 1.6-.3 2.7-1.4 2.5-2.9 0-1.5-1.6-2.8-3.2-2.6zM90 12.2c2.5.1 4.5 1.4 6.2 3 2.1 2 3.1 4.6 2.7 7.5.1 0 .2 0 .2-.1 2.6-1.1 4.8-2.7 7-4.4 1-.7.9-2-.1-2.7-1.5-.9-2.9-1.8-4.5-2.6-4-1.9-8.2-3.1-12.7-2.8-1.3.1-2.6.2-3.9.5-2.5.6-4.9 1.2-6.8 3-2 1.8-3.1 4.1-3.8 6.6-.1.3.1.7.4.9.8.8 1.7 1.5 2.5 2.2.6.5 1.3.9 1.9 1.4-.6-3.5-.2-6.6 2-9.3 2.3-2.6 5.5-3.3 8.9-3.2z"/><path d="M102.3 27.9c-2.8 1.1-5.5 2.2-8.3 3.3-4.4 1.7-8.9 3.2-13.3 4.9-2.3.9-5.4 2.7-7.6 3.8-.6.3-.9.8-.9 1.6.1 2.1.8 3.7.8 5.8v2.2c1.9.2 3.7 0 5.4-.6 1.3-.5 2.4-1.3 2.7-2.8 0 0 .2-1.7-1.9-.2-.3.3-.7.6-1.1.7-1.7.3-2.4-1.3-2.2-2.6.5-3.3 2.9-5.7 6.3-6.1 2-.3 4.1-.3 6.2-.3 2.8-.1 5.6-.7 8.1-1.8 3.4-1.5 5.2-4.3 5.8-7.9zm-18.8-1c1.7 1.5 3.8 2.1 6 2.3 2.7.2 5.2-.5 7.7-1.3.9-.3 1.7-.7 2.5-1.1-2.3.1-4.7.3-7 .3-1.7 0-3.4-.1-5-1-1.4-.8-2.6-1.9-2.9-3.4-.6-3 2.1-5.8 4.7-6.1 0 0 3.5-.3 6.3 3.7.2-2.2 0-3.7-2.1-5.2-2.8-1.9-6.6-1.9-9.1-.4-4.7 2.6-4.7 9-1.1 12.2zm-55.7 9.5c-.3 2.7-.1 5.4 1.1 7.9.6 1.3 1.3 2.6 2.4 3.6 1.1 1 2.4 1.9 3.6 2.9-3.7-5.4-4.3-11.2-2.6-17.3C34 27.3 38.1 23 43.8 20.2h-.1c-.3 0-.6.1-.8.2-5 1-8.9 3.7-11.9 7.7-2 2.5-2.8 5.3-3.2 8.3zm-9.2 49c-.8-2-.7-4.2-.7-6.3 0-.3 0-.7-.2-.9-.7-.8-1.5-1.5-2.4-2.3-.1.5-.2.8-.2 1.1v1.6c.2 2.7-.4 5.1-1.8 7.5-.9 1.5-1.7 3.1-1.5 5 .1 1.7 1.2 3.4 2.6 3.8 2 .5 4 .1 5-1.5 1.1-1.7.8-3.4.3-5.1-.2-1-.8-1.9-1.1-2.9zm69.6-2.6c-1-.1-2.1-.2-3.1-.1-2.1.3-4.2.3-6.2-.4-4.3-1.4-7.9-3.9-10.8-7.3-1.7-1.9-3-4.1-4.5-6.2l-.2-.3.1.3c.5 1.2.8 2.4 1.4 3.6 1.7 3.4 4.2 6.2 7.2 8.6 2.1 1.7 4.3 3 6.8 4 1.5.6 2.9 1.5 4.3 2.3 1.4.8 2.9 1.3 4.6 1.1 1.4-.2 2.6-1.5 2.8-3 0-.9-.8-2.4-2.4-2.6zM24.4 37.4c.6-2.5 1.5-4.9 2.4-7.3.7-1.9 2.1-4.4 3.9-5.5l.6-.5c-1.2.8-2.5 1.4-3.7 2.3-2.1 1.6-3.3 4-4.4 6.4-1 2.2-3.7 3.9-6.3 1.7-.9-.7-1.7-1.4-2.6-2.1-.2-.1-.5-.3-.6-.2-1 .3-2 .7-3.2 1.1 4.6 3.1 9.1 6.1 13.5 9.1 0-1.7 0-3.4.4-5zM13.8 74.5s.2-.4.1-.4-.3.3-.3.3c-.2.2-.4.3-.6.5-1.5 1.1-2.9 2.2-4.4 3.2-1.2.8-2.6 1.3-3.9 2-1.3.6-1.9 1.7-1.9 3.1-.1 2.7 2.6 4.8 5.1 4.9.9 0 1.6-.4 2.2-1 1.2-1.3 1.5-3 1.5-4.6 0-2.2.3-4.4 1.5-6.4.3-.6.5-1.1.7-1.6zm91.1-17.7c-2 .5-3.9.1-5.7-.2-2.8-.6-5.5-1.6-8.2-2.5-.2-.1-.4-.1-.7-.2l-.4-.1.4.3c.2.1.4.3.6.4 3.2 2 6.4 4 9.7 6 1 .6 1.7 1.3 2.3 2.3 1.1 1.9 2.9 2.1 4.8 1.2 1.5-.8 2.3-3 1.8-4.5-.8-2.3-2.5-3.2-4.6-2.7zM68 39.1c1.8-1 3.4-2 5-2.8 1.7-.8 3.4-1.5 5.2-2.4-1.6-.4-2.9-.6-4.2-1-1.7-.5-3.4-1.2-5.2-1.8-1.8-.6-3.7-1.2-5.5-1.8-2.3-.8-4.8-1.1-7.2-1.2C61.9 30 66.5 33 68 39.1zm-10.8-8.7c-1.9-.9-3.9-1.5-6.1-1.2-2.3.3-4.4.8-6.1 2.5-1.8 1.8-2.3 4-2.4 6.4 1.4-2.9 3.3-5.2 6.6-6 3.2-.8 6.1.1 8.7 1.9 2.7 1.8 4.1 4.5 4.2 7.9l.1-.2c.2-.8.2-2.8 0-4.2-.4-3.3-2-5.7-5-7.1zm22.4 58.1l-2.1-.6c-2.2-.7-4.3-1.4-6.5-2.1l-.6-.2.4.5c.1.2.3.3.5.4.5.3.9.7 1.3 1.1 1.2 1.1 2.3 2.1 2.8 3.7.2.6.4 1.2.7 1.8 1.1 2.3 3.5 2.1 5.2 1 .3-.2.5-.5.7-.9.6-1.7-.6-4.2-2.4-4.7zM95.2 9c-.7-2-1.9-3.5-3.8-4.4-1.7-.8-3.4-.8-5-.1-1.9.8-3.2 2.4-3.8 4.3-.1.3-.3.7-.4 1.1 4.2-1.1 8.7-1.7 13-.9zm18.3 9.2c-.9-.1-1.1.6-1.5 1.1-2 2.2-4 4.4-6.4 6.2-.6.5-1.3 1-1.6 1.7-.3.7-.3 1.7-.4 2.5 0 0-.1.4-.2.6-.1.2.2-.2.3-.3 1.8-1.1 3.6-2.2 5.4-3.4 2.3-1.6 4.3-3.6 5.6-6.3.3-1-.2-1.9-1.2-2.1z"/><path d="M90.2 21.8c.4-.1.7-.2.9-.4 1-.9.7-2.4-.6-2.8-1-.4-2-.2-2.9.5-.9.7-1.1 1.7-1 2.7.4 2.5 3.4 4.1 5.8 3 2-.9 2.2-4.1.8-4.9-.2.6-.3 1.2-.5 1.8-.3.8-1 1.2-1.8 1.2-.9 0-1.8-.7-2-1.5-.1-.3 0-.8.2-1 .2-.2.6-.2.7-.1 0 0 .5.2.4.7-.2.5-.4.9 0 .8zm1.7 24.5c1.7-2.9 3.5-5.4 4.4-8.6-2.5 1.2-4.9 2-7.8 2.2 1.9 1.8 2.8 4 3.4 6.4zM72 19.7c.8-1.6 1.5-3.3 2.3-5.1-2.8.8-5.5 1.6-8.3 2.4 2 .9 4.1 1.8 6 2.7zM19.4 33.3c2.2-.5 2.8-2.3 3.5-4.3-2.5.8-4.8 1.5-7.2 2.2 1.4 1.8 2.4 2.4 3.7 2.1zm36.4 14.3l-.3-.2.3.2zm-1.3-6.2c-.1-.5-.2-.9-.4-1.2-.2-.3-.5-.6-.8-.7-.3-.2-.8-.3-1.3-.3s-1 .1-1.3.3c-.3.2-.6.5-.8.8-.2.3-.4.7-.5 1.2-.1.5-.1.9-.1 1.5s0 1.2.1 1.6c.1.5.2.9.4 1.2.2.3.5.6.8.7.3.2.8.3 1.3.3s1-.1 1.3-.3c.3-.2.6-.5.8-.8.2-.3.4-.7.5-1.2.1-.5.1-1 .1-1.5 0-.6-.1-1.1-.1-1.6z"/><path d="M54 40.3c-.2-.3-.5-.6-.8-.7-.3-.2-.8-.3-1.3-.3s-1 .1-1.3.3c-.3.2-.6.5-.8.8-.2.3-.4.7-.5 1.2-.1.5-.1.9-.1 1.5s0 1.2.1 1.6c.1.5.2.9.4 1.2.2.3.5.6.8.7.3.2.8.3 1.3.3s1-.1 1.3-.3c.3-.2.6-.5.8-.8.2-.3.4-.7.5-1.2.1-.5.1-1 .1-1.5 0-.6 0-1.1-.1-1.6 0-.5-.2-.9-.4-1.2z"/><path d="M110.4 14.7c-2.9-1.6-5.9-3.1-8.6-5.2-1.6-1.2-3.1-2.4-4.1-4.2C96 2.2 93.4.6 89.9.1c-2.4-.3-4.5.2-6.5 1.4C81 2.9 79.2 5 77.3 7c-1.2 1.3-2.6 2.6-4.1 3.5-2.4 1.3-4.9 2.3-7.5 3.2-2 .7-4.1 1.2-6.2 1.8l-9 2.4c-1 .3-3.1.7-4.1.9h1.1c4.6-.4 9.2-.3 13.6 1.1 4.9 1.5 10.7 4.8 11.9 6.6-.5-.2-1-.3-1.4-.5-2.6-1-5.1-2-7.7-3-3.5-1.3-7.1-1.4-10.7-1.6-2.2-.1-4.4.1-6.5.8-2.8.9-5.6 1.9-7.6 4.3-.6.7-1.1 1.4-1.7 2.1-2.1 2.8-3 6-2.8 9.4.1 1.8.6 3.7 1 5.5.7 3.5 2.8 6.1 5.8 8 2.4 1.5 5.1 2.4 7.9 2.6 2 .1 4.1.1 6-.9 0 0 1.4-.7 2.7-2.4-.4-.1-.8-.3-.8-.3h-.1c-.3-.1-.6-.2-1-.4s-.7-.4-1.1-.7c-.3-.2-.6-.5-.9-.9l-.1-.2-.2.1c-.2.1-.5.2-.8.3-.4.1-.8.1-1.2.1-.9 0-1.6-.1-2.3-.3-.6-.2-1.2-.6-1.6-1-.4-.5-.7-1-1-1.7-.2-.7-.3-1.6-.3-2.6 0-.9.1-1.7.3-2.4.2-.7.6-1.3 1-1.8s1-.9 1.7-1.1c.7-.3 1.4-.4 2.3-.4.8 0 1.6.1 2.2.3.6.2 1.2.6 1.6 1 .4.5.8 1 1 1.7.2.7.3 1.5.3 2.5 0 .5 0 1-.1 1.4l-.3 1.2c-.1.4-.3.7-.5 1-.1.2-.3.5-.5.7l-.2.2.2.2c.3.3.6.5.8.6.3.2.5.3.7.4.1.1.6.2 1.1.3.1 0 .2.1.2.1l.5.1c1-2 1.8-4.7 1.3-8.5-.4-3.1-2-5.1-5.1-6.2 0 0-1.1-.6-4.4-.5-2.5.1-5.7 2.2-6.7 4.9-.9 2.5-1 4.8-.3 7.3.8 2.9 3.5 4.8 4.7 5.2 0 0-.9.1-2.3-.6-4.2-2.5-6-6.6-6.5-11.2-.3-2.7.4-5.3 1.8-7.7 1.3-2.2 3-4 5.4-5.1 1.7-.8 3.5-1.1 5.5-1.3 2.9-.2 5.7-.1 8.5.6 1.9.5 3.7 1 5.6 1.5 1.2.3 2.3.6 3.5.9 1.5.4 3 1 4.6 1.4 2 .5 4 .7 6.1 1.1 1.7.3 3.3 0 5.1-.5-.4-.1-.5-.2-.7-.3-1.6-.7-3.3-1.4-4.9-2.2-2.9-1.4-5.3-3.5-7.8-5.4-2.3-1.8-4.8-3.3-7.7-4.1-1.5-.4-3.1-.8-4.6-1.2.7-.3 1.5-.4 2.3-.6 3.7-.8 7.2-2.1 10.7-3.6 3.3-1.4 6-3.6 8.3-6.3 1.4-1.7 2.9-3.3 5.1-4 2-.6 3.9-.6 5.7.5 2 1.1 3.2 2.9 4.2 4.9.4.8.8 1.3 1.8 1.6 3.7 1.1 6.9 3.4 10.2 5.3.8.4 1 1.5.3 2.2-1.6 1.6-3.2 3.2-4.9 4.5 0 0-3.4 2.9-9 3 0 0 5.3.5 7.8-.9 1.7-.9 3.4-2 5-3.2 1.3-1 2.5-2.3 3.5-3.7 1-1.2.7-1.6-.6-2.3z"/></g></symbol><symbol viewBox="0 0 18 18" id="icon--restart"><path d="M9.7 1.2l.7 6.4 2.1-2.1c1.9 1.9 1.9 5.1 0 7-.9 1-2.2 1.5-3.5 1.5-1.3 0-2.6-.5-3.5-1.5-1.9-1.9-1.9-5.1 0-7 .6-.6 1.4-1.1 2.3-1.3l-.6-1.9C6 2.6 4.9 3.2 4 4.1 1.3 6.8 1.3 11.2 4 14c1.3 1.3 3.1 2 4.9 2 1.9 0 3.6-.7 4.9-2 2.7-2.7 2.7-7.1 0-9.9L16 1.9l-6.3-.7z"/></symbol><symbol viewBox="0 0 18 18" id="icon--rewind"><path d="M10.125 1L0 9l10.125 8v-6.171L18 17V1l-7.875 6.171z"/></symbol><symbol viewBox="0 0 53.84 53.84" id="icon--ticket"><title>ticket</title><path class="tcls-1" d="M47.37 13.39L46 14.73a4.893 4.893 0 0 1-6.92-6.92l1.34-1.34L34 0 0 34l6.48 6.48 1.34-1.34A4.89 4.89 0 1 1 14.73 46l-1.33 1.37 6.48 6.48 34-34zm-10.92 4a8.65 8.65 0 0 0 10.78 1.19l1.28 1.28L19.87 48.5l-1.28-1.28a8.67 8.67 0 0 0-12-12L5.35 34 34 5.35l1.28 1.28a8.65 8.65 0 0 0 1.16 10.77zM14.2 29.05l10.59 10.6 14.86-14.86-10.6-10.59zm4.71 0l10.15-10.14 5.88 5.88-10.15 10.15z"/></symbol><symbol viewBox="0 0 19.99 16" id="icon--twitter"><title>s_twitter</title><path class="ucls-1" d="M20 1.89a8.28 8.28 0 0 1-2.36.64A4 4 0 0 0 19.44.3a8.32 8.32 0 0 1-2.6 1 4.13 4.13 0 0 0-3-1.28 4.07 4.07 0 0 0-4.1 4 4.14 4.14 0 0 0 .1.92A11.72 11.72 0 0 1 1.39.74a4 4 0 0 0-.56 2 4 4 0 0 0 1.83 3.39 4.13 4.13 0 0 1-1.86-.5v.05a4.06 4.06 0 0 0 3.29 4 4.25 4.25 0 0 1-1.09.1 4.07 4.07 0 0 1-.77-.07 4.1 4.1 0 0 0 3.83 2.81A8.29 8.29 0 0 1 1 14.24a8.34 8.34 0 0 1-1-.06A11.74 11.74 0 0 0 6.29 16 11.5 11.5 0 0 0 18 4.51v-.52a8.31 8.31 0 0 0 2-2.1z"/></symbol><symbol viewBox="0 0 18 18" id="icon--volume"><path d="M15.6 3.3c-.4-.4-1-.4-1.4 0-.4.4-.4 1 0 1.4C15.4 5.9 16 7.4 16 9c0 1.6-.6 3.1-1.8 4.3-.4.4-.4 1 0 1.4.2.2.5.3.7.3.3 0 .5-.1.7-.3C17.1 13.2 18 11.2 18 9s-.9-4.2-2.4-5.7z"/><path d="M11.282 5.282a.909.909 0 0 0 0 1.316c.735.735.995 1.458.995 2.402 0 .936-.425 1.917-.995 2.487a.909.909 0 0 0 0 1.316c.145.145.636.262 1.018.156a.725.725 0 0 0 .298-.156C13.773 11.733 14.13 10.16 14.13 9c0-.17-.002-.34-.011-.51-.053-.992-.319-2.005-1.522-3.208a.909.909 0 0 0-1.316 0zM3.786 6.008H.714C.286 6.008 0 6.31 0 6.76v4.512c0 .452.286.752.714.752h3.072l4.071 3.858c.5.3 1.143 0 1.143-.602V2.752c0-.601-.643-.977-1.143-.601L3.786 6.008z"/></symbol><symbol viewBox="0 0 18.91 18.49" id="icon--youtube"><title>s_youtube</title><path d="M15.45 8.81h-12A3.45 3.45 0 0 0 0 12.26V15a3.45 3.45 0 0 0 3.45 3.45h12A3.45 3.45 0 0 0 18.91 15v-2.74a3.45 3.45 0 0 0-3.46-3.45zM6 11H4.86v5.54H3.78V11H2.67v-1H6v1zm3.15 5.54h-1V16a2 2 0 0 1-.55.44 1.15 1.15 0 0 1-.56.15.59.59 0 0 1-.5-.21 1 1 0 0 1-.17-.64v-4h1v3.66a.41.41 0 0 0 .06.25.23.23 0 0 0 .2.08.54.54 0 0 0 .27-.1 1.29 1.29 0 0 0 .3-.26v-3.64h1v4.79zm3.47-1a1.19 1.19 0 0 1-.23.78.79.79 0 0 1-.65.27 1.14 1.14 0 0 1-.5-.1 1.23 1.23 0 0 1-.41-.32v.37h-1V10h1v2.09a1.49 1.49 0 0 1 .41-.33.94.94 0 0 1 .44-.11.83.83 0 0 1 .69.3 1.43 1.43 0 0 1 .24.89v2.66zm3.32-1.29h-1.86v.9a1 1 0 0 0 .09.52.36.36 0 0 0 .32.15.4.4 0 0 0 .33-.12 1 1 0 0 0 .09-.55v-.23h1v.25a1.53 1.53 0 0 1-.36 1.11 1.43 1.43 0 0 1-1.07.37 1.32 1.32 0 0 1-1-.39 1.53 1.53 0 0 1-.37-1.09V13a1.35 1.35 0 0 1 .41-1 1.44 1.44 0 0 1 1-.39 1.34 1.34 0 0 1 1 .36 1.44 1.44 0 0 1 .35 1v1.22z"/><path d="M14.51 12.44a.38.38 0 0 0-.33.13.7.7 0 0 0-.1.43v.48h.85V13a.7.7 0 0 0-.1-.43.37.37 0 0 0-.32-.13zm-3.3-.01a.47.47 0 0 0-.2 0 .68.68 0 0 0-.2.15v3a.82.82 0 0 0 .23.17.56.56 0 0 0 .23.05.31.31 0 0 0 .26-.1.53.53 0 0 0 .08-.33v-2.45a.57.57 0 0 0-.1-.37.37.37 0 0 0-.3-.12zM5.02 7.14h1.22V4.18L7.65 0H6.42l-.75 2.86h-.08L4.8 0H3.58l1.44 4.32v2.82m4.27.14a1.64 1.64 0 0 0 1.15-.39 1.37 1.37 0 0 0 .42-1.06V3.11a1.27 1.27 0 0 0-.43-1 1.59 1.59 0 0 0-1.1-.38 1.77 1.77 0 0 0-1.17.36 1.21 1.21 0 0 0-.43 1v2.72a1.4 1.4 0 0 0 .42 1.07 1.59 1.59 0 0 0 1.14.4zM8.84 3A.36.36 0 0 1 9 2.76a.48.48 0 0 1 .32-.11.53.53 0 0 1 .35.11.35.35 0 0 1 .09.24v2.91a.43.43 0 0 1-.13.33.49.49 0 0 1-.35.12.43.43 0 0 1-.28-.11.46.46 0 0 1-.11-.33V3zm3.65 4.22a1.35 1.35 0 0 0 .62-.17 2.28 2.28 0 0 0 .62-.49v.59h1.08V1.87h-1.08v4a1.49 1.49 0 0 1-.33.28.62.62 0 0 1-.3.11.26.26 0 0 1-.22-.09.43.43 0 0 1-.07-.27v-4h-1.08v4.38a1.11 1.11 0 0 0 .19.7.68.68 0 0 0 .57.24z"/></symbol></svg>