<svg id="Layer_1" data-name="Layer 1" xmlns="http://www.w3.org/2000/svg" viewBox="0 0 61.59 50.36"><title>business</title><path class="cls-1" d="M58.12 8.18H45.31V5.3A5.31 5.31 0 0 0 40 0H21.58a5.31 5.31 0 0 0-5.3 5.3v2.88H3.47A3.59 3.59 0 0 0 0 11.87v34.8a3.59 3.59 0 0 0 3.47 3.69h54.65a3.59 3.59 0 0 0 3.47-3.69v-34.8a3.59 3.59 0 0 0-3.47-3.69zM21.58 4H40a1.32 1.32 0 0 1 1.33 1.3v2.88H20.27V5.3A1.32 1.32 0 0 1 21.58 4zm13 21.18v3.09a.15.15 0 0 1-.15.15h-7a.15.15 0 0 1-.15-.15v-3.1a.15.15 0 0 1 .11-.17h7a.15.15 0 0 1 .18.17zm19.8-1.32h-16A4.16 4.16 0 0 0 34.42 21h-7a4.16 4.16 0 0 0-3.92 2.81H7.22A3.49 3.49 0 0 1 4 21.52v-9.35h53.61v8.89a3.15 3.15 0 0 1-3.24 2.79zM6.46 27.79a7.54 7.54 0 0 0 .76 0h16v.42a4.14 4.14 0 0 0 4.14 4.14h7a4.14 4.14 0 0 0 4.13-4.14v-.38h15.88a7.27 7.27 0 0 0 .8 0l.43-.06h.23a8.38 8.38 0 0 0 1.78-.53v19.14H4V27.17a8.41 8.41 0 0 0 2 .55zm49.32-.35z"/></svg>