<?xml version="1.0" encoding="UTF-8" standalone="no"?>
<svg width="96px" height="96px" viewBox="0 0 96 96" version="1.1" xmlns="http://www.w3.org/2000/svg" xmlns:xlink="http://www.w3.org/1999/xlink">
    <!-- Generator: Sketch 3.6.1 (26313) - http://www.bohemiancoding.com/sketch -->
    <g id="Page-1" stroke="none" stroke-width="1" fill-rule="evenodd">
        <g id="noun_8843_cc" transform="translate(0.000000, -1.000000)">
            <path d="M65.026,48.998 L94.825,19.198 C96.392,17.635 96.392,15.091 94.825,13.523 L83.475,2.173 C81.908,0.606 79.368,0.606 77.799,2.173 L48,31.972 L18.201,2.173 C16.633,0.606 14.094,0.61 12.525,2.173 L1.175,13.527 C-0.392,15.094 -0.392,17.634 1.175,19.202 L30.975,49.002 L1.175,78.797 C-0.392,80.365 -0.392,82.908 1.175,84.477 L12.526,95.828 C14.094,97.395 16.633,97.391 18.202,95.828 L48,66.027 L77.799,95.827 C79.367,97.394 81.907,97.394 83.475,95.827 L94.826,84.473 C96.393,82.909 96.393,80.366 94.826,78.797 L65.026,48.998 L65.026,48.998 Z" id="Shape"></path>
        </g>
    </g>
</svg>