<svg id="Layer_1" data-name="Layer 1" xmlns="http://www.w3.org/2000/svg" viewBox="0 0 54.85 31.09"><title>group</title><path class="cls-1" d="M27.39 15h.08a7.5 7.5 0 1 0 0-15h-.08a7.5 7.5 0 1 0 0 15zm4-7.49a4 4 0 1 1-4-4 4 4 0 0 1 4.03 3.98zm13.14 5.69A6.59 6.59 0 1 0 38 6.59a6.6 6.6 0 0 0 6.56 6.59zm-3.11-6.61a3.14 3.14 0 1 1 3.14 3.13 3.14 3.14 0 0 1-3.14-3.13zM54.7 25.51a1.73 1.73 0 0 1-3.19-.1C49.76 20.78 47.17 18 44.6 18s-5 2.56-6.69 6.85c.14.27.28.57.41.85l.07.15c.35.74.68 1.5 1 2.3v.27A2 2 0 0 1 38.3 31a2 2 0 0 1-2.54-1.17c-2.09-5.66-5.2-9-8.34-9s-6.25 3.38-8.33 9a2 2 0 0 1-3.7-1.37v-.11-.16c.3-.8.64-1.55 1-2.29l.1-.2c.13-.27.26-.56.4-.82-1.68-4.31-4.18-6.88-6.63-6.88s-5.16 2.78-6.91 7.41a1.733 1.733 0 1 1-3.24-1.23c2.31-6.12 6-9.62 10.14-9.62 3.45 0 6.6 2.43 8.91 6.85.18-.23.37-.43.55-.64l.15-.17c.19-.21.38-.41.58-.6l.28-.27c.18-.17.37-.34.55-.5l.34-.23c.18-.14.36-.29.55-.42l.36-.23a10.41 10.41 0 0 1 .94-.54l.54-.26.47-.18.53-.18.45-.12.55-.12.39-.06a8.52 8.52 0 0 1 1-.06h.12a8.52 8.52 0 0 1 1 .06l.39.06.61.12.45.12.53.18.47.18.49.24a10.41 10.41 0 0 1 .94.54l.36.23c.19.13.37.27.55.42l.33.26c.19.16.37.32.55.5l.23.26c.19.19.39.39.58.6l.15.17c.19.21.37.41.55.64C38 17 41.15 14.56 44.6 14.56c4.13 0 7.83 3.51 10.14 9.62a1.71 1.71 0 0 1-.04 1.33zM10.3 13.18a6.59 6.59 0 1 0-6.6-6.59 6.6 6.6 0 0 0 6.6 6.59zm0-9.72a3.13 3.13 0 1 1-3.14 3.13 3.14 3.14 0 0 1 3.14-3.13z"/></svg>