<svg id="Layer_1" data-name="Layer 1" xmlns="http://www.w3.org/2000/svg" viewBox="0 0 77.41 15"><defs><style>.cls-1{fill:#efc048;}.cls-2{fill:#fff;}</style></defs><title>logo</title><path class="cls-1" d="M0 .13h2.57A2.76 2.76 0 0 1 5.3 2.94a2.76 2.76 0 0 1-2.73 2.83H0V.13zm2.25 4.56A1.71 1.71 0 0 0 4 2.94a1.71 1.71 0 0 0-1.75-1.75h-1.1v3.5h1.1zM8.92.13h1.15v5.64H8.92V.13zM14.15.13h1L17.61 3V.13h1.08v5.78l-3.46-4.16v4h-1.08V.13zM22.6.13h1L26.06 3V.13h1.08v5.78l-3.47-4.16v4H22.6V.13zM31.22.13h3.33v1.08h-2.17v1.08h2.06v1.06h-2.06v1.34h2.23v1.08h-3.39V.13zM39.53 4.11v1.66h-1.15V.13h2.48A1.87 1.87 0 0 1 42.72 2a2.3 2.3 0 0 1-.89 1.77 1.81 1.81 0 0 1 .89 1.67v.33h-1.15V5.5a1.35 1.35 0 0 0-1.28-1.39h-.76zm1-2.93h-1v1.88h1a.94.94 0 1 0 .03-1.87zM48.39 2.34a1.7 1.7 0 0 1 1.71 1.71 1.79 1.79 0 0 1-1.71 1.71h-2.06v-1h2a.67.67 0 0 0 0-1.34h-.68a1.63 1.63 0 0 1 0-3.26h1.74v1h-1.67a.59.59 0 1 0 0 1.18h.67zM53.78.13h1.15v2.29h2.21V.13h1.15v5.64h-1.15V3.43h-2.21v2.34h-1.15V.13zM61.91 3a3 3 0 0 1 6 0 3 3 0 0 1-6 0zm4.77 0a1.78 1.78 0 1 0-3.56 0 1.78 1.78 0 1 0 3.56 0zM76.26.13h1.15L75 5.91l-1-2.16-.9 2.16L70.59.13h1.15L73.2 3.6l.38-1-1-2.49h1.14L75 3.6z"/><path class="cls-2" d="M21.41 13.58h-1v1.3h-.78v-4h1.77a1.34 1.34 0 0 1 1.33 1.34 1.37 1.37 0 0 1-1.32 1.36zm-.15-2h-.8v1.22h.8a.61.61 0 1 0-.01-1.19zM25.59 14.17l-.3.71h-.87l1.83-4.13 1.83 4.13h-.87l-.29-.71h-1.33zm.66-1.7l-.41 1h.82zM30.54 10.85h.72L33 12.91v-2.06h.77V15l-2.48-3v2.87h-.75v-4zM36.7 10.85h1.83a2 2 0 0 1 0 4H36.7v-4zm1.61 3.26a1.25 1.25 0 1 0 0-2.5h-.78v2.5h.79zM42.74 12.88A2.14 2.14 0 1 1 44.88 15a2.13 2.13 0 0 1-2.14-2.12zm3.41 0a1.27 1.27 0 1 0-1.28 1.32 1.29 1.29 0 0 0 1.29-1.32zM50.3 13.7v1.18h-.82v-4h1.77a1.34 1.34 0 0 1 1.33 1.34 1.64 1.64 0 0 1-.63 1.27 1.29 1.29 0 0 1 .63 1.19v.23h-.82v-.22a1 1 0 0 0-.92-1h-.54zm.7-2.09h-.7v1.34h.7a.67.67 0 0 0 0-1.34zM55.94 14.17l-.3.71h-.86l1.83-4.13 1.83 4.13h-.87l-.29-.71h-1.34zm.66-1.7l-.41 1H57z"/></svg>