<svg id="Layer_1" data-name="Layer 1" xmlns="http://www.w3.org/2000/svg" viewBox="0 0 53.84 53.84"><title>ticket</title><path class="cls-1" d="M47.37,13.39L46,14.73a4.89,4.89,0,0,1-6.92-6.92l1.34-1.34L34,0,0,34l6.48,6.48,1.34-1.34A4.89,4.89,0,1,1,14.73,46L13.4,47.37l6.48,6.48,34-34Zm-10.92,4a8.65,8.65,0,0,0,10.78,1.19l1.28,1.28L19.87,48.5l-1.28-1.28a8.67,8.67,0,0,0-12-12L5.35,34,34,5.35l1.28,1.28A8.65,8.65,0,0,0,36.44,17.4ZM14.2,29.05L24.79,39.65,39.65,24.79,29.05,14.2Zm4.71,0L29.06,18.91l5.88,5.88L24.79,34.94Z" transform="translate(0 0)"/></svg>