<svg id="Layer_1" data-name="Layer 1" xmlns="http://www.w3.org/2000/svg" viewBox="0 0 19.99 16"><title>s_twitter</title><path class="cls-1" d="M20 1.89a8.28 8.28 0 0 1-2.36.64A4 4 0 0 0 19.44.3a8.32 8.32 0 0 1-2.6 1 4.13 4.13 0 0 0-3-1.28 4.07 4.07 0 0 0-4.1 4 4.14 4.14 0 0 0 .1.92A11.72 11.72 0 0 1 1.39.74a4 4 0 0 0-.56 2 4 4 0 0 0 1.83 3.39 4.13 4.13 0 0 1-1.86-.5v.05a4.06 4.06 0 0 0 3.29 4 4.25 4.25 0 0 1-1.09.1 4.07 4.07 0 0 1-.77-.07 4.1 4.1 0 0 0 3.83 2.81A8.29 8.29 0 0 1 1 14.24a8.34 8.34 0 0 1-1-.06A11.74 11.74 0 0 0 6.29 16 11.5 11.5 0 0 0 18 4.51v-.52a8.31 8.31 0 0 0 2-2.1z"/></svg>