<svg data-name="Layer 1" xmlns="http://www.w3.org/2000/svg" viewBox="0 0 18.91 18.49"><title>s_youtube</title><path d="M15.45 8.81h-12A3.45 3.45 0 0 0 0 12.26V15a3.45 3.45 0 0 0 3.45 3.45h12A3.45 3.45 0 0 0 18.91 15v-2.74a3.45 3.45 0 0 0-3.46-3.45zM6 11H4.86v5.54H3.78V11H2.67v-1H6v1zm3.15 5.54h-1V16a2 2 0 0 1-.55.44 1.15 1.15 0 0 1-.56.15.59.59 0 0 1-.5-.21 1 1 0 0 1-.17-.64v-4h1v3.66a.41.41 0 0 0 .06.25.23.23 0 0 0 .2.08.54.54 0 0 0 .27-.1 1.29 1.29 0 0 0 .3-.26v-3.64h1v4.79zm3.47-1a1.19 1.19 0 0 1-.23.78.79.79 0 0 1-.65.27 1.14 1.14 0 0 1-.5-.1 1.23 1.23 0 0 1-.41-.32v.37h-1V10h1v2.09a1.49 1.49 0 0 1 .41-.33.94.94 0 0 1 .44-.11.83.83 0 0 1 .69.3 1.43 1.43 0 0 1 .24.89v2.66zm3.32-1.29h-1.86v.9a1 1 0 0 0 .09.52.36.36 0 0 0 .32.15.4.4 0 0 0 .33-.12 1 1 0 0 0 .09-.55v-.23h1v.25a1.53 1.53 0 0 1-.36 1.11 1.43 1.43 0 0 1-1.07.37 1.32 1.32 0 0 1-1-.39 1.53 1.53 0 0 1-.37-1.09V13a1.35 1.35 0 0 1 .41-1 1.44 1.44 0 0 1 1-.39 1.34 1.34 0 0 1 1 .36 1.44 1.44 0 0 1 .35 1v1.22z"/><path d="M14.51 12.44a.38.38 0 0 0-.33.13.7.7 0 0 0-.1.43v.48h.85V13a.7.7 0 0 0-.1-.43.37.37 0 0 0-.32-.13zM11.21 12.43a.47.47 0 0 0-.2 0 .68.68 0 0 0-.2.15v3a.82.82 0 0 0 .23.17.56.56 0 0 0 .23.05.31.31 0 0 0 .26-.1.53.53 0 0 0 .08-.33v-2.45a.57.57 0 0 0-.1-.37.37.37 0 0 0-.3-.12zM5.02 7.14h1.22V4.18L7.65 0H6.42l-.75 2.86h-.08L4.8 0H3.58l1.44 4.32v2.82M9.29 7.28a1.64 1.64 0 0 0 1.15-.39 1.37 1.37 0 0 0 .42-1.06V3.11a1.27 1.27 0 0 0-.43-1 1.59 1.59 0 0 0-1.1-.38 1.77 1.77 0 0 0-1.17.36 1.21 1.21 0 0 0-.43 1v2.72a1.4 1.4 0 0 0 .42 1.07 1.59 1.59 0 0 0 1.14.4zM8.84 3A.36.36 0 0 1 9 2.76a.48.48 0 0 1 .32-.11.53.53 0 0 1 .35.11.35.35 0 0 1 .09.24v2.91a.43.43 0 0 1-.13.33.49.49 0 0 1-.35.12.43.43 0 0 1-.28-.11.46.46 0 0 1-.11-.33V3zM12.49 7.22a1.35 1.35 0 0 0 .62-.17 2.28 2.28 0 0 0 .62-.49v.59h1.08V1.87h-1.08v4a1.49 1.49 0 0 1-.33.28.62.62 0 0 1-.3.11.26.26 0 0 1-.22-.09.43.43 0 0 1-.07-.27v-4h-1.08v4.38a1.11 1.11 0 0 0 .19.7.68.68 0 0 0 .57.24z"/></svg>